<svg version="1.0" xmlns="http://www.w3.org/2000/svg" width="1706.667" height="1476" viewBox="0 0 1280 1107"><path d="M610.5 2c-60.7 5.4-107.2 17.9-158 42.5-123.3 59.9-211.6 176.2-235.9 311-5.1 28.3-6.1 40.5-6.1 77 0 36.4 1 48.3 6.1 76.5 12.4 68.2 41.5 133.1 84.2 188 16.7 21.3 43 48.6 63.2 65.4 5.2 4.4 9.6 8.5 9.8 9.2.2.8-1.8 1.7-5.5 2.4-147.3 29.6-234 56.1-318.9 97.4-12.7 6.2-29 14.5-36.2 18.5C2.1 896 0 897.5 0 899.5c0 1.2.6 2.5 1.4 2.8.8.3 8 1.1 16 1.8 16.9 1.5 30.9.4 50.1-3.7 43-9.2 60.5-12 60.5-9.6 0 .6-5.3 5-11.8 9.8-14.6 11-33.6 29.9-42.4 42.4-3.8 5.2-9 14-11.7 19.5-5.3 10.7-11.8 28.2-10.8 29.2.4.3 8.2-3.9 17.4-9.3 51-29.9 108.6-53.6 177.3-72.9 17.7-5 35.3-9.5 37.1-9.5 1.3 0 1.2 1.1-2.5 21.4-3.5 18.9-4.4 19.3-4.8 2.2l-.3-10-4.8-1.2c-4.5-1.1-4.9-1.1-6.2.9-1.9 3.1-5.5 12.1-7.5 19.1-.9 3.3-2.2 6.2-2.8 6.4-.6.2-2.4-3.9-4.3-9.8-1.7-5.6-3.5-9.8-3.9-9.3-1.8 1.8-10.2 31.2-12 42.1-3.3 18.9-2.4 31.5 3.1 47.2 5.2 14.8 8.1 11.1-24.8 31.5-48.7 30.2-90.7 56.7-92.3 58.2-2 1.9-4.6 2.9 46-18.2 27.6-11.5 49.9-21.5 63.6-28.6 11.6-6 21.7-10.9 22.4-10.9.7 0 6.1 4.6 11.9 10.3 10.8 10.5 21 18.7 36.1 29l8.5 5.8 3.2-3.8c2-2.3 3-4.5 2.7-5.6-.7-2.4.4-2.2 8.3 1.4 12.4 5.6 55.4 23.9 56.2 23.9.4 0 1.7-2 2.8-4.4 1.7-3.4 1.9-4.7 1-5.4-.7-.5-9.1-5.5-18.7-11.1-20.4-12-28.1-17.3-35-24.3-7.8-7.9-7-8.4 6.6-3.8 9.7 3.3 43.2 12 46.2 12 1.3 0 2.2-1.2 3.1-4.1.7-2.3.9-4.5.4-4.9-.4-.4-7.1-2.8-14.9-5.4-15.2-5-27.1-10.3-29.3-13-2.2-2.6-1-2.6 5.4.1 8.6 3.5 21.6 6.8 40.8 10.3l16.8 3.1 25.2-10c25.5-10.1 59.2-22.9 132.2-50.3 69.8-26.1 122.2-46.7 158-61.8 39.6-16.7 85.9-38.5 109.2-51.3 6.5-3.5 13.6-7.4 15.8-8.6l4.1-2.1 15.9 2c67.2 8.5 131.9 23.6 189 44 51.1 18.2 90.1 37 131.4 63.2 6.8 4.4 12.5 7.7 12.7 7.5.6-.5-9.3-52.3-12.1-63.1-3.9-15-7.5-21.8-16.3-30.5-6.8-6.7-7.3-7.5-5.7-8.7 4-2.9 12.3-3.7 42.5-3.9 33.1-.2 39.6-.9 52.9-6.3 8.3-3.3 21.1-11.8 21.1-14 0-1.9-12-9.8-23.5-15.5-31.3-15.5-85.1-32.5-151-47.8-21.2-4.9-89.9-18.8-111.5-22.6-7.5-1.3-10.5-2.3-10.7-3.3-.1-.9 3.8-4.3 9.9-8.5 23.5-16.1 64.8-47.6 100.8-76.9 36.7-29.8 120-99.7 120-100.6 0-.6-.3-1-.7-1-.3 0-13.9-2.7-30.2-6-43.1-8.7-79.6-14.3-111.9-17.1-7.8-.7-14.7-1.6-15.3-2-.8-.5.1-5.6 2.9-17 9.6-38.7 13.2-67.4 13.2-106.4 0-29.5-1.7-48.8-6.7-77C1036.8 194.7 916.2 62 758 17.2c-28-8-51.8-12.1-88-15.2-26.7-2.3-33.1-2.3-59.5 0zM678 150.5c81.3 11.2 152.9 55.7 198.6 123.5 23.8 35.4 38.6 73.4 45.6 117.1 1.9 12.4 2.2 18.1 2.2 40.9 0 22.7-.3 28.6-2.2 41-2.3 14.6-5.4 28.1-9.3 41.4-5 16.7-17.5 46.2-20.1 47.1-2.8 1-83.3 13.3-84.1 12.8-.4-.2-.5-.8-.2-1.3s9.6-7.1 20.5-14.7l20-13.7V260h-6.1c-5.8 0-6.4.2-19.5 8.6-8 5.1-13.9 8.3-14.4 7.8-.5-.5-1.1-6-1.2-12.2l-.3-11.4-17.9 12.6c-9.9 6.9-18.3 12.6-18.8 12.6-.4 0-.8-5.4-.8-11.9 0-6.8-.4-12.2-1-12.6-.5-.3-7.1 4.8-14.7 11.5-7.5 6.6-14.3 12-15 12-1 0-1.3-2.9-1.3-12.5 0-7-.4-12.5-.9-12.5s-5.3 4.8-10.6 10.7c-5.4 6-10.4 10.9-11.1 11.1-1.1.3-1.4-2.3-1.6-12l-.3-12.3-36.9 49.8c-20.3 27.4-37.4 49.6-38 49.4-.6-.2-17.5-22.5-37.6-49.6l-36.5-49.2-.5 11.7c-.3 7.1-.9 11.9-1.6 12.1-.6.2-5.7-4.9-11.5-11.3l-10.4-11.7-.3 12.9c-.1 7.1-.6 13.2-1.1 13.7-.4.4-7.2-4.9-15-11.8S509.5 253 509 253c-.6 0-1 5-1 11.9 0 6.7-.4 12.2-1 12.6-.5.3-9-5.1-18.7-12l-17.8-12.6-.3 11c-.2 9.5-.5 11.1-1.9 11.1-.9 0-6.9-3.4-13.4-7.5-11.4-7.2-12.1-7.5-17.9-7.5h-6v284.5l81.5 56.3c44.8 31 81.7 56.7 82 57.1.2.5-.3 1.5-1.3 2.3-3.3 2.9-58.8 33.8-60.6 33.8-1 0-7.3-2.6-14-5.8-80.3-38.5-138.7-113.3-156.1-200.2-4.3-21.1-5-29.4-5-56.5.1-28.8 1.7-43.2 7.6-67C394.4 246.7 493.9 161.2 616 149.1c13-1.3 48-.5 62 1.4zM543.5 312.4c35.2 24.9 64 45.9 64 46.6 0 .7-.7 1.7-1.6 2.3-1.3.8-14.2-6.9-64.5-38.8-34.6-21.9-63.5-40.5-64.1-41.3-1.3-1.6-1.8-12.4-.6-13.5.3-.4 1.1-.7 1.7-.7.6.1 29.9 20.5 65.1 45.4zm258.3-37.7.3 7.1-4.3 3c-2.4 1.6-30.8 19.7-63.2 40.2-53.4 33.9-59.1 37.2-61.5 36.4-1.4-.5-2.6-1.6-2.6-2.4 0-1.8 127.4-92.1 129.5-91.7 1.1.2 1.6 2 1.8 7.4zM561 306.6c24.2 21.2 44 39 44 39.5 0 .6-1 .4-2.2-.2-3.1-1.6-82.7-57.7-85.5-60.2-2-1.8-2.3-3-2.3-9.9 0-4.8.4-7.8 1-7.8s20.9 17.4 45 38.6zm202-30.8c0 6.3-.4 8.2-1.7 9.4-2.7 2.3-83.7 59.4-86.3 60.8-1.8 1-2.1.9-1.8-.2.6-1.8 87-77.7 88.6-77.8.8 0 1.2 2.2 1.2 7.8zm-184 27.3c16.2 18.1 30.2 33.9 31 35.1 1.4 2 1.4 2.1-.4 1.5-3.3-1.3-62.4-53.8-63-56-.8-2.9-.8-10.1 0-12.1.3-.9 1.1-1.6 1.8-1.5.6 0 14.4 14.9 30.6 33zm152-25.4v7.8l-31.1 27.2c-17.2 15-31.6 27.3-32.1 27.3s-.5-.6 0-1.6c1.9-3.3 60.8-68.4 62-68.4.8 0 1.2 2.2 1.2 7.7zm-135.8 24.6c25.4 34.3 26.4 35.7 25 35.7-1 0-42.7-45.6-48-52.4-3-4-3.1-13.6-.1-13.6.4 0 10.8 13.6 23.1 30.3zm112.6-24.6c.4 5.9 2.4 3.2-27.7 36.6-19.7 21.9-25 27.1-22 21.5 1.1-2 37.6-51.7 44.2-60.1 1.6-2.1 3.4-3.6 4.1-3.4.6.2 1.2 2.6 1.4 5.4zM651 360.1c6.6 1.4 15.1 5 14.7 6.2-1.6 5-33.4 6.6-47.8 2.4-6-1.8-5.6-3.7 1.3-6.4 9.4-3.8 20.9-4.6 31.8-2.2z"/></svg>
